<?xml version="1.0" encoding="utf-8" standalone="no"?>
<!DOCTYPE svg PUBLIC "-//W3C//DTD SVG 1.1//EN"
  "http://www.w3.org/Graphics/SVG/1.1/DTD/svg11.dtd">
<svg xmlns:xlink="http://www.w3.org/1999/xlink" width="220.141994pt" height="172.003598pt" viewBox="0 0 220.141994 172.003598" xmlns="http://www.w3.org/2000/svg" version="1.1">
 <metadata>
  <rdf:RDF xmlns:dc="http://purl.org/dc/elements/1.1/" xmlns:cc="http://creativecommons.org/ns#" xmlns:rdf="http://www.w3.org/1999/02/22-rdf-syntax-ns#">
   <cc:Work>
    <dc:type rdf:resource="http://purl.org/dc/dcmitype/StillImage"/>
    <dc:date>2023-09-06T18:32:54.147818</dc:date>
    <dc:format>image/svg+xml</dc:format>
    <dc:creator>
     <cc:Agent>
      <dc:title>Matplotlib v3.7.2, https://matplotlib.org/</dc:title>
     </cc:Agent>
    </dc:creator>
   </cc:Work>
  </rdf:RDF>
 </metadata>
 <defs>
  <style type="text/css">*{stroke-linejoin: round; stroke-linecap: butt}</style>
 </defs>
 <g id="figure_1">
  <g id="patch_1">
   <path d="M 0 172.003598 
L 220.141994 172.003598 
L 220.141994 0 
L 0 0 
z
" style="fill: #ffffff"/>
  </g>
  <g id="axes_1">
   <g id="line2d_1">
    <path d="M 64.609196 44.2832 
L 208.306595 44.2832 
" clip-path="url(#p27cecc01bd)" style="fill: none; stroke: #000000; stroke-width: 2; stroke-linecap: square"/>
   </g>
   <g id="line2d_2">
    <path d="M 64.609196 90.637199 
L 208.306595 90.637199 
" clip-path="url(#p27cecc01bd)" style="fill: none; stroke: #000000; stroke-width: 2; stroke-linecap: square"/>
   </g>
   <g id="line2d_3">
    <path d="M 64.609196 136.991198 
L 208.306595 136.991198 
" clip-path="url(#p27cecc01bd)" style="fill: none; stroke: #000000; stroke-width: 2; stroke-linecap: square"/>
   </g>
   <g id="patch_2">
    <path d="M 59.973797 21.1062 
L -1098.876188 21.1062 
L -1098.876188 206.522197 
L 59.973797 206.522197 
z
" clip-path="url(#p27cecc01bd)" style="fill: #ffffff; stroke: #ffffff; stroke-width: 1.5; stroke-linejoin: miter"/>
   </g>
   <g id="line2d_4">
    <path d="M 135.994356 90.637199 
L 135.994356 44.2832 
" clip-path="url(#p27cecc01bd)" style="fill: none; stroke: #6fa4ff; stroke-width: 2; stroke-linecap: square"/>
   </g>
   <g id="line2d_5">
    <path d="M 182.348355 136.991198 
L 182.348355 44.2832 
" clip-path="url(#p27cecc01bd)" style="fill: none; stroke: #6fa4ff; stroke-width: 2; stroke-linecap: square"/>
   </g>
   <g id="patch_3">
    <path d="M 74.575306 59.348249 
L 104.705406 59.348249 
L 104.705406 29.21815 
L 74.575306 29.21815 
z
" clip-path="url(#p27cecc01bd)" style="fill: #6fa4ff; stroke: #6fa4ff; stroke-width: 1.5; stroke-linejoin: miter"/>
   </g>
   <g id="patch_4">
    <path d="M 135.994356 48.802714 
C 137.192945 48.802714 138.342605 48.32651 139.190135 47.478979 
C 140.037666 46.631448 140.51387 45.481789 140.51387 44.2832 
C 140.51387 43.08461 140.037666 41.934951 139.190135 41.08742 
C 138.342605 40.239889 137.192945 39.763685 135.994356 39.763685 
C 134.795766 39.763685 133.646107 40.239889 132.798576 41.08742 
C 131.951045 41.934951 131.474841 43.08461 131.474841 44.2832 
C 131.474841 45.481789 131.951045 46.631448 132.798576 47.478979 
C 133.646107 48.32651 134.795766 48.802714 135.994356 48.802714 
z
" clip-path="url(#p27cecc01bd)" style="fill: #6fa4ff; stroke: #6fa4ff; stroke-width: 1.5; stroke-linejoin: miter"/>
   </g>
   <g id="patch_5">
    <path d="M 135.994356 101.182734 
C 138.791064 101.182734 141.473603 100.07159 143.451175 98.094018 
C 145.428746 96.116447 146.53989 93.433907 146.53989 90.637199 
C 146.53989 87.84049 145.428746 85.157951 143.451175 83.18038 
C 141.473603 81.202808 138.791064 80.091664 135.994356 80.091664 
C 133.197647 80.091664 130.515108 81.202808 128.537536 83.18038 
C 126.559965 85.157951 125.448821 87.84049 125.448821 90.637199 
C 125.448821 93.433907 126.559965 96.116447 128.537536 98.094018 
C 130.515108 100.07159 133.197647 101.182734 135.994356 101.182734 
z
" clip-path="url(#p27cecc01bd)" style="fill: #6fa4ff; stroke: #6fa4ff; stroke-width: 2; stroke-linejoin: miter"/>
   </g>
   <g id="patch_6">
    <path d="M 182.348355 48.802714 
C 183.546944 48.802714 184.696604 48.32651 185.544135 47.478979 
C 186.391665 46.631448 186.86787 45.481789 186.86787 44.2832 
C 186.86787 43.08461 186.391665 41.934951 185.544135 41.08742 
C 184.696604 40.239889 183.546944 39.763685 182.348355 39.763685 
C 181.149766 39.763685 180.000106 40.239889 179.152575 41.08742 
C 178.305045 41.934951 177.82884 43.08461 177.82884 44.2832 
C 177.82884 45.481789 178.305045 46.631448 179.152575 47.478979 
C 180.000106 48.32651 181.149766 48.802714 182.348355 48.802714 
z
" clip-path="url(#p27cecc01bd)" style="fill: #6fa4ff; stroke: #6fa4ff; stroke-width: 1.5; stroke-linejoin: miter"/>
   </g>
   <g id="patch_7">
    <path d="M 182.348355 147.536733 
C 185.145063 147.536733 187.827603 146.425589 189.805174 144.448017 
C 191.782746 142.470446 192.89389 139.787907 192.89389 136.991198 
C 192.89389 134.19449 191.782746 131.511951 189.805174 129.534379 
C 187.827603 127.556807 185.145063 126.445663 182.348355 126.445663 
C 179.551646 126.445663 176.869107 127.556807 174.891536 129.534379 
C 172.913964 131.511951 171.80282 134.19449 171.80282 136.991198 
C 171.80282 139.787907 172.913964 142.470446 174.891536 144.448017 
C 176.869107 146.425589 179.551646 147.536733 182.348355 147.536733 
z
" clip-path="url(#p27cecc01bd)" style="fill: #6fa4ff; stroke: #6fa4ff; stroke-width: 2; stroke-linejoin: miter"/>
   </g>
   <g id="line2d_6">
    <path d="M 135.994356 96.663219 
L 135.994356 84.611179 
" clip-path="url(#p27cecc01bd)" style="fill: none; stroke: #ffffff; stroke-width: 2; stroke-linecap: square"/>
   </g>
   <g id="line2d_7">
    <path d="M 129.968336 90.637199 
L 142.020375 90.637199 
" clip-path="url(#p27cecc01bd)" style="fill: none; stroke: #ffffff; stroke-width: 2; stroke-linecap: square"/>
   </g>
   <g id="line2d_8">
    <path d="M 182.348355 143.017218 
L 182.348355 130.965178 
" clip-path="url(#p27cecc01bd)" style="fill: none; stroke: #ffffff; stroke-width: 2; stroke-linecap: square"/>
   </g>
   <g id="line2d_9">
    <path d="M 176.322335 136.991198 
L 188.374375 136.991198 
" clip-path="url(#p27cecc01bd)" style="fill: none; stroke: #ffffff; stroke-width: 2; stroke-linecap: square"/>
   </g>
   <g id="text_1">
    <g clip-path="url(#p27cecc01bd)">
     <!-- ${q}_{0}$ -->
     <g transform="translate(37.300897 48.734176) scale(0.1625 -0.1625)">
      <defs>
       <path id="DejaVuSans-Oblique-71" d="M 2669 525 
Q 2438 222 2123 65 
Q 1809 -91 1428 -91 
Q 897 -91 595 267 
Q 294 625 294 1253 
Q 294 1759 480 2231 
Q 666 2703 1013 3078 
Q 1238 3322 1530 3453 
Q 1822 3584 2144 3584 
Q 2531 3584 2781 3431 
Q 3031 3278 3144 2969 
L 3244 3494 
L 3822 3494 
L 2888 -1319 
L 2309 -1319 
L 2669 525 
z
M 891 1338 
Q 891 875 1084 633 
Q 1278 391 1644 391 
Q 2188 391 2572 911 
Q 2956 1431 2956 2175 
Q 2956 2625 2757 2864 
Q 2559 3103 2188 3103 
Q 1916 3103 1684 2976 
Q 1453 2850 1281 2606 
Q 1100 2350 995 2006 
Q 891 1663 891 1338 
z
" transform="scale(0.015625)"/>
       <path id="DejaVuSans-30" d="M 2034 4250 
Q 1547 4250 1301 3770 
Q 1056 3291 1056 2328 
Q 1056 1369 1301 889 
Q 1547 409 2034 409 
Q 2525 409 2770 889 
Q 3016 1369 3016 2328 
Q 3016 3291 2770 3770 
Q 2525 4250 2034 4250 
z
M 2034 4750 
Q 2819 4750 3233 4129 
Q 3647 3509 3647 2328 
Q 3647 1150 3233 529 
Q 2819 -91 2034 -91 
Q 1250 -91 836 529 
Q 422 1150 422 2328 
Q 422 3509 836 4129 
Q 1250 4750 2034 4750 
z
" transform="scale(0.015625)"/>
      </defs>
      <use xlink:href="#DejaVuSans-Oblique-71"/>
      <use xlink:href="#DejaVuSans-30" transform="translate(63.476562 -16.40625) scale(0.7)"/>
     </g>
    </g>
   </g>
   <g id="text_2">
    <g clip-path="url(#p27cecc01bd)">
     <!-- ${q}_{1}$ -->
     <g transform="translate(37.300897 95.088175) scale(0.1625 -0.1625)">
      <defs>
       <path id="DejaVuSans-31" d="M 794 531 
L 1825 531 
L 1825 4091 
L 703 3866 
L 703 4441 
L 1819 4666 
L 2450 4666 
L 2450 531 
L 3481 531 
L 3481 0 
L 794 0 
L 794 531 
z
" transform="scale(0.015625)"/>
      </defs>
      <use xlink:href="#DejaVuSans-Oblique-71"/>
      <use xlink:href="#DejaVuSans-31" transform="translate(63.476562 -16.40625) scale(0.7)"/>
     </g>
    </g>
   </g>
   <g id="text_3">
    <g clip-path="url(#p27cecc01bd)">
     <!-- ${q}_{2}$ -->
     <g transform="translate(37.300897 141.442175) scale(0.1625 -0.1625)">
      <defs>
       <path id="DejaVuSans-32" d="M 1228 531 
L 3431 531 
L 3431 0 
L 469 0 
L 469 531 
Q 828 903 1448 1529 
Q 2069 2156 2228 2338 
Q 2531 2678 2651 2914 
Q 2772 3150 2772 3378 
Q 2772 3750 2511 3984 
Q 2250 4219 1831 4219 
Q 1534 4219 1204 4116 
Q 875 4013 500 3803 
L 500 4441 
Q 881 4594 1212 4672 
Q 1544 4750 1819 4750 
Q 2544 4750 2975 4387 
Q 3406 4025 3406 3419 
Q 3406 3131 3298 2873 
Q 3191 2616 2906 2266 
Q 2828 2175 2409 1742 
Q 1991 1309 1228 531 
z
" transform="scale(0.015625)"/>
      </defs>
      <use xlink:href="#DejaVuSans-Oblique-71"/>
      <use xlink:href="#DejaVuSans-32" transform="translate(63.476562 -16.40625) scale(0.7)"/>
     </g>
    </g>
   </g>
   <g id="text_4">
    <g clip-path="url(#p27cecc01bd)">
     <!-- H -->
     <g transform="translate(84.752153 47.870387) scale(0.13 -0.13)">
      <defs>
       <path id="DejaVuSans-48" d="M 628 4666 
L 1259 4666 
L 1259 2753 
L 3553 2753 
L 3553 4666 
L 4184 4666 
L 4184 0 
L 3553 0 
L 3553 2222 
L 1259 2222 
L 1259 0 
L 628 0 
L 628 4666 
z
" transform="scale(0.015625)"/>
      </defs>
      <use xlink:href="#DejaVuSans-48"/>
     </g>
    </g>
   </g>
  </g>
 </g>
 <defs>
  <clipPath id="p27cecc01bd">
   <rect x="7.2" y="7.2" width="205.741994" height="157.603598"/>
  </clipPath>
 </defs>
</svg>
